HIERARCHY
ROOT hip
{
  OFFSET 0 0 0
  CHANNELS 6 Xposition Yposition Zposition Zrotation Yrotation Xrotation
  JOINT abdomen
  {
    OFFSET 0 20.6881 -0.73152
    CHANNELS 3 Zrotation Xrotation Yrotation
    JOINT chest
    {
      OFFSET 0 11.7043 -0.48768
      CHANNELS 3 Zrotation Xrotation Yrotation
      JOINT neck
      {
        OFFSET 0 22.1894 -2.19456
        CHANNELS 3 Zrotation Xrotation Yrotation
        JOINT head
        {
          OFFSET -0.24384 7.07133 1.2192
          CHANNELS 3 Zrotation Xrotation Yrotation
          JOINT leftEye
          {
            OFFSET 4.14528 8.04674 8.04672
            CHANNELS 3 Zrotation Xrotation Yrotation
            End Site
            {
              OFFSET 1 0 0
            }
          }
          JOINT rightEye
          {
            OFFSET -3.6576 8.04674 8.04672
            CHANNELS 3 Zrotation Xrotation Yrotation
            End Site
            {
              OFFSET 1 0 0
            }
          }
        }
      }
      JOINT rCollar
      {
        OFFSET -2.68224 19.2634 -4.8768
        CHANNELS 3 Zrotation Xrotation Yrotation
        JOINT rShldr
        {
          OFFSET -8.77824 -1.95073 1.46304
          CHANNELS 3 Zrotation Xrotation Yrotation
          JOINT rForeArm
          {
            OFFSET -28.1742 -1.7115 0.48768
            CHANNELS 3 Zrotation Xrotation Yrotation
            JOINT rHand
            {
              OFFSET -22.5879 0.773209 7.07136
              CHANNELS 3 Zrotation Xrotation Yrotation
              JOINT rThumb1
              {
                OFFSET -1.2192 -0.487915 3.41376
                CHANNELS 3 Zrotation Xrotation Yrotation
                JOINT rThumb2
                {
                  OFFSET -3.37035 -0.52449 3.41376
                  CHANNELS 3 Zrotation Xrotation Yrotation
                  End Site
                  {
                    OFFSET -1.78271 -1.18214 1.43049
                  }
                }
              }
              JOINT rIndex1
              {
                OFFSET -7.75947 0.938293 5.60832
                CHANNELS 3 Zrotation Xrotation Yrotation
                JOINT rIndex2
                {
                  OFFSET -2.54057 -0.884171 1.56538
                  CHANNELS 3 Zrotation Xrotation Yrotation
                  End Site
                  {
                    OFFSET -1.62519 -0.234802 1.16502
                  }
                }
              }
              JOINT rMid1
              {
                OFFSET -8.24714 1.18213 3.41376
                CHANNELS 3 Zrotation Xrotation Yrotation
                JOINT rMid2
                {
                  OFFSET -3.10165 -0.590103 1.0647
                  CHANNELS 3 Zrotation Xrotation Yrotation
                  End Site
                  {
                    OFFSET -2.48547 -0.328903 0.83742
                  }
                }
              }
              JOINT rRing1
              {
                OFFSET -8.82822 0.546677 1.51678
                CHANNELS 3 Zrotation Xrotation Yrotation
                JOINT rRing2
                {
                  OFFSET -2.60934 -0.819778 -0.0198488
                  CHANNELS 3 Zrotation Xrotation Yrotation
                  End Site
                  {
                    OFFSET -2.33842 -0.294052 0.168128
                  }
                }
              }
              JOINT rPinky1
              {
                OFFSET -8.27202 -0.0477905 -0.4584
                CHANNELS 3 Zrotation Xrotation Yrotation
                JOINT rPinky2
                {
                  OFFSET -1.82734 -0.647385 -0.700984
                  CHANNELS 3 Zrotation Xrotation Yrotation
                  End Site
                  {
                    OFFSET -1.69225 -0.51767 -0.607171
                  }
                }
              }
            }
          }
        }
      }
      JOINT lCollar
      {
        OFFSET 2.68224 19.2634 -4.8768
        CHANNELS 3 Zrotation Xrotation Yrotation
        JOINT lShldr
        {
          OFFSET 8.77824 -1.95073 1.46304
          CHANNELS 3 Zrotation Xrotation Yrotation
          JOINT lForeArm
          {
            OFFSET 28.1742 -1.7115 0.48768
            CHANNELS 3 Zrotation Xrotation Yrotation
            JOINT lHand
            {
              OFFSET 22.5879 0.773209 7.07136
              CHANNELS 3 Zrotation Xrotation Yrotation
              JOINT lThumb1
              {
                OFFSET 1.2192 -0.487915 3.41376
                CHANNELS 3 Zrotation Xrotation Yrotation
                JOINT lThumb2
                {
                  OFFSET 3.37035 -0.52449 3.41376
                  CHANNELS 3 Zrotation Xrotation Yrotation
                  End Site
                  {
                    OFFSET 1.78271 -1.18214 1.43049
                  }
                }
              }
              JOINT lIndex1
              {
                OFFSET 7.75947 0.938293 5.60832
                CHANNELS 3 Zrotation Xrotation Yrotation
                JOINT lIndex2
                {
                  OFFSET 2.54057 -0.884171 1.56538
                  CHANNELS 3 Zrotation Xrotation Yrotation
                  End Site
                  {
                    OFFSET 1.62519 -0.234802 1.16502
                  }
                }
              }
              JOINT lMid1
              {
                OFFSET 8.24714 1.18213 3.41376
                CHANNELS 3 Zrotation Xrotation Yrotation
                JOINT lMid2
                {
                  OFFSET 3.10165 -0.590103 1.0647
                  CHANNELS 3 Zrotation Xrotation Yrotation
                  End Site
                  {
                    OFFSET 2.48547 -0.328903 0.83742
                  }
                }
              }
              JOINT lRing1
              {
                OFFSET 8.82822 0.546677 1.51678
                CHANNELS 3 Zrotation Xrotation Yrotation
                JOINT lRing2
                {
                  OFFSET 2.60934 -0.819778 -0.0198488
                  CHANNELS 3 Zrotation Xrotation Yrotation
                  End Site
                  {
                    OFFSET 2.33842 -0.294052 0.168128
                  }
                }
              }
              JOINT lPinky1
              {
                OFFSET 8.27202 -0.0477905 -0.4584
                CHANNELS 3 Zrotation Xrotation Yrotation
                JOINT lPinky2
                {
                  OFFSET 1.82734 -0.647385 -0.700984
                  CHANNELS 3 Zrotation Xrotation Yrotation
                  End Site
                  {
                    OFFSET 1.69225 -0.51767 -0.607171
                  }
                }
              }
            }
          }
        }
      }
    }
  }
  JOINT rButtock
  {
    OFFSET -8.77824 4.35084 1.2192
    CHANNELS 3 Zrotation Xrotation Yrotation
    JOINT rThigh
    {
      OFFSET 0 -1.70687 -2.19456
      CHANNELS 3 Zrotation Xrotation Yrotation
      JOINT rShin
      {
        OFFSET 0 -36.8199 0.73152
        CHANNELS 3 Zrotation Xrotation Yrotation
        JOINT rFoot
        {
          OFFSET 0.73152 -45.1104 -5.12064
          CHANNELS 3 Zrotation Xrotation Yrotation
          End Site
          {
            OFFSET -1.1221 -3.69964 12.103
          }
        }
      }
    }
  }
  JOINT lButtock
  {
    OFFSET 8.77824 4.35084 1.2192
    CHANNELS 3 Zrotation Xrotation Yrotation
    JOINT lThigh
    {
      OFFSET 0 -1.70687 -2.19456
      CHANNELS 3 Zrotation Xrotation Yrotation
      JOINT lShin
      {
        OFFSET 0 -36.8199 0.73152
        CHANNELS 3 Zrotation Xrotation Yrotation
        JOINT lFoot
        {
          OFFSET -0.73152 -45.1104 -5.12064
          CHANNELS 3 Zrotation Xrotation Yrotation
          End Site
          {
            OFFSET 1.1221 -3.69964 12.103
          }
        }
      }
    }
  }
}
MOTION
Frames:	4
Frame Time:	0.03333
0.21355561912059784 61.580777168273926 -0.02547292970120907 -7.180749482937301 6.149838722542835 2.0994917216088456 -2.471543438200253 15.166443589749775 4.151901241721501 2.686164417064744 -10.019366710484492 1.2484895313346902 -4.982635379242173 15.414102833959854 -3.22575597824151 8.760789950241046 -25.28325660912284 -4.726264655632567 0.08688782360751068 -0.04378412726157338 -0.014201697512175458 -0.07238090201680028 -0.04814856478035864 0.02042373304179262 0.03631000599930181 0.014920788365730863 -0.03119032564912768 46.59802646140112 29.40956171692972 15.961158297795562 -24.13579336629716 -30.59548746251903 66.97847424654584 -5.036002635435244 -11.500438590488397 -5.707209167153805 0.033912849724465344 0.0037145023305762315 0.010738791602978992 0.03717629276555628 -0.04890004567161871 -0.039434790864156195 -0.07756949790848278 0.019324419430964357 0.04403839172559768 7.702851704414015 5.497412649720871 0.4170679993070805 -0.004582523324549648 -0.01346657172232639 -0.019297312117695867 2.877463928451638 1.0022371993719297 0.12943192468918296 0.03401194082828342 -0.00042645993630267116 0.05402498206580258 10.150269847248726 0.7266587031557791 0.05566817616971955 -0.013495760108857616 0.07516943346716377 0.1019403332386023 2.2614293169709128 -0.6623426537231771 -0.17708735514755197 0.00859451240999167 0.07543308944129684 -0.01338487625655069 -55.525411555687946 31.763391753983267 -24.281525697523136 23.309268759739332 -28.495361387091023 -63.23668488334858 5.7190164297946415 -14.906064825757843 4.829698052215479 -0.07295298372064174 0.023218854557488112 0.006364989254511413 -0.041534166899435974 -0.017655452035101164 -0.01152615766780808 -0.012290818689732164 -0.006157815743163176 0.018934084792068706 -7.775917653060227 5.536820279910906 -0.3991239717795463 -0.023480055932388208 -0.039620059745392795 0.002531385500283085 -2.8167689464962007 0.9134436729447062 -0.052113516273977485 0.040061033833681745 -0.006294659650401439 -0.058271758903963786 -10.246924707967223 0.7335705344307146 0.07865357699581074 -0.018216948279750424 0.006193247349482616 -0.05090145118099112 -2.2337258562539293 -0.8033624212261098 0.24882992796164696 -0.04821243772126883 -0.0018387082689085889 -0.033348932231116166 -31.403024143184226 -36.20082905395715 -29.041496482936072 -6.404074158263166 62.35013998945927 7.319247790058589 -4.780570635949692 -10.309338122829152 -10.185121741262362 0.06558902593916308 -0.03941778209229728 -0.0396315323287643 36.79769879495706 -34.681740341032956 31.87358661095767 6.511642380614873 63.60515992869243 -7.574998247114193 5.185171832474206 -10.37359739631428 13.346313435383623
0.22327788174152374 63.50996494293213 -0.12689847499132156 -5.713166372770526 5.22827758321298 3.1168067770169903 -2.7111370827741914 14.192193944275619 3.538957931170441 2.8305311373435416 -9.34192976558241 1.0896259479859522 -5.149974160133839 15.482112735072963 -4.417736473086628 8.907835385334957 -25.06270980082313 -6.318094029443753 0.035106958890453975 -0.13783134982100614 -0.027447888912063154 0.06843262578970978 0.025071810174118525 0.0655411078932672 -0.07563332604176928 -0.043748935779091946 -0.009469470314840881 51.77171717276735 30.660825052119375 16.282949000162372 -23.672752644347195 -28.330393535614995 65.50029153656085 -4.0083699389555605 -9.846270933896152 -4.3734751397176534 -0.12624820276231077 0.04148203334616174 -0.10150816369104032 0.06754619530148907 0.02335214996800914 0.008015440434421527 -0.0393001614323129 0.0019167218358348284 -0.05864368404861214 7.789974182372113 5.45727632372376 0.4507982481929538 -0.02898027920495254 -0.009884137502654702 -0.021557331000603173 2.8681300480639926 0.8674487521870172 0.02992344562000932 0.07680558393849916 -0.11577352070071441 -0.03588986932406669 10.423803555582104 0.7396055935318027 0.09644184419375691 0.09165521560690025 -0.034298221804042156 -0.018859726443565483 2.1886092551348217 -0.7918971482914501 -0.219853997666205 0.00873004897633411 0.011872683046480446 0.02253524867110504 -61.46874505820414 32.817795376914816 -26.5847423252796 22.735256246796876 -26.39704189669848 -61.84109965099656 5.055392688715264 -11.96912190246644 3.4654369211707774 -0.019019782321811212 -0.13334279495839707 0.03839099922076073 0.05110411570027009 0.050370243890463955 -0.0465143352997273 -0.04335462575665594 -0.06885249566068045 -0.02946474238834743 -7.699926675901957 5.503180317588123 -0.4867661310839467 0.041990242109093 0.002204123389504271 0.014153806146706032 -2.9189114373259795 0.9623194394282596 -0.1801103008246644 -0.06461679119949407 -0.0031002655529511003 -0.03212923653616643 -10.312555141928229 0.7534024689335227 -0.04654112244787845 0.18324799901591834 -0.06736116654409048 0.007555042995680354 -2.185102593326255 -0.7390166497984477 0.03880299836593002 0.10233976590291582 0.020820444302608713 0.013574627449430108 -32.66509283764084 -35.46859520889135 -27.0280506307174 -4.7198195183770135 62.501510641845094 6.349298175553779 -4.455274765878196 -9.780001877247749 -10.555997598099468 0.18176595468773135 0.04891238536884969 0.10284258521970512 37.83485619023432 -33.460529838191356 30.046934479707797 4.376004444144674 63.04757743579844 -5.609369695501134 5.251754650937607 -10.112643188884771 15.024216853115307
0.9428638964891434 62.011826038360596 -0.03971434198319912 -23.44836214709206 -28.398541748058797 -6.940557769924164 6.814595848137612 11.809019707000404 9.433523456125927 -0.6116161194179618 -7.238765963521036 2.5082996743318535 -2.967375898355451 13.2557459807629 0.909756011123134 5.5648232017343116 -21.8321891253053 1.9568368174907824 -0.1081739747537232 0.1648365304170614 0.15894882731123108 0.07259498575859787 0.44585297779045296 0.15641634791346373 0.10334100226613092 -0.0806072512222724 -0.22836710809511188 69.44348951800345 39.26582180248701 -13.933729340798582 -22.419474403352385 -25.548331128169156 57.4974066973811 -0.6776510286438797 -2.813863768221418 -0.910930376773553 0.17371166755240539 -0.2924531188909019 0.18328319049839978 0.205332722006067 0.1608763013589234 -0.27692857915513897 0.0004968962621184276 0.022565130748723846 0.01672510556495138 7.158568016720862 5.041145767880264 0.6698403871628529 -0.0002171786712652492 0.09657263164419208 -0.06369580955902661 3.0236203717363908 0.7732282135773954 -0.10758294994710553 0.3141603672077016 0.0931616458448583 0.4210029353209483 9.936666780013978 0.6491243700493513 -0.27067271284478905 0.11485816863022692 0.28591577408155344 0.2346604070437646 1.9075706630074805 -0.296254119164014 -0.006813673986043072 0.17941060664113478 0.2633220419156802 0.1128372864095494 -75.40690036158489 27.14478710136938 1.252759466783006 19.35306268302245 -18.41492937033203 -46.359850934853604 1.5437127188208555 -5.923914420932208 3.9820489512152704 -0.1732986011901783 -0.2520289644532988 -0.18209465754153822 -0.11995967960999177 0.17004657737160597 -0.040472819535439464 -0.14477407702976544 0.13735251620759123 -0.40801997300837056 -7.71828195552272 5.08087313630082 -0.27299753848353214 -0.14624608951760895 -0.17252022642906129 -0.15008695034783043 -2.4463758986560484 0.7897374744924038 -0.004205182053332889 -0.17703695582199666 0.14729665798932154 0.022221406814828242 -9.741489001838985 0.4343755385813341 0.06742015696696117 -0.3062529291395309 0.11895977726809892 0.044776265599370625 -2.240619651560588 -0.9870052371925666 0.19525488460741897 -0.20016792505477377 0.39403062501027375 0.13669988629631122 -2.2559013460548454 -4.988181919735046 0.41008647875826965 3.788225258043233 43.79410403351665 -1.6506046457230261 -11.002258252806007 -18.018687898464787 -25.95090930803888 -0.007944683943488426 -0.13132061873703693 0.006273101865833586 48.578549094273036 -50.12225039387137 35.54344725200552 -3.5919179373342507 61.545974007149475 3.796456489766745 -0.8617833237139032 0.8649832139792013 -0.9212066098232489
1.3263793662190437 69.38233971595764 0.8191457483917475 -22.412958402884193 -37.92140834739672 0.33889912561850266 10.772607656116314 12.13278177271641 11.347859848393128 -1.824432319769616 -6.536965306962696 2.6652646785347396 -3.089675131199584 13.529488009865963 -0.4728479664636061 5.357925672717224 -23.044773099225175 0.6783862344750081 0.07634038402299782 0.03760643460070841 0.07181503685232059 -0.5050362467834961 -0.0010347736592569317 0.3203372594557732 -0.1106951416506777 -0.22354197965289455 -0.43289093293220837 83.14893344617269 39.01602470906672 -28.86214596061529 -20.97622811097201 -26.702896060184358 56.931283052930006 2.4848900547252812 12.196701244290328 1.6235615789214184 0.20415072575368456 -0.08301598680218615 1.1690836730348262 0.2477062017606212 -0.1129512118304711 -0.47592240536375807 0.3856907505902766 -0.08337729313710925 0.27694506765868215 7.694220052850412 4.772776536333061 -0.004395973782843675 0.2884462524473374 -0.14865789334656393 -0.16939453442970775 2.70809273939507 0.4436821515731525 0.025429968218721066 -0.14160172096455895 0.31185992747872954 0.7582910167494006 11.152127117348073 0.47260197293177986 -0.474655778798691 0.33396434062359487 0.04508693248490042 0.11650539147853715 2.5042468108330973 -0.17732014186828776 0.12043323049897049 0.01759317991977769 0.07245710131472824 0.20684363455566787 -84.74979318384028 32.93821161198214 14.803712733497909 22.927532902121904 -19.923786459879548 -48.85069115156302 0.16769413749149192 -16.155929679714937 5.347965976246876 -0.1466324754533907 -0.18027019662035146 0.4827469916442173 -0.7474680484009865 0.6673389904618944 0.0877146767034789 -0.8325408292778457 0.18827712599873692 0.3692043281203054 -7.726632715556707 5.1318515338316795 -0.2821137599522364 -0.29204384114923004 0.048930621440325096 -0.3481970141108734 -1.9522413808398333 0.2693990426471404 0.26014000085567407 -0.7926612223439924 0.06327369853223452 -0.032680881033350734 -9.04005077219348 0.9011578701751458 0.13624615896418138 -0.7133554156432983 -0.10395486551778582 0.6942415581378407 -2.1865710839978076 -1.2869438165269793 0.061614549533303226 0.0265849638795408 -0.23766166153417695 -0.07216014816839135 -3.092657789432764 2.648005003945529 -2.581754943760756 -1.9346976130698323 47.015692529147394 3.8501652554183172 -17.067000075366476 -21.479206656546335 -31.975052486172792 0.13400302879121398 0.3627098854366811 -0.439661624751248 47.20717346743412 -54.60072688547328 29.729426305950586 -5.468860324556101 56.48093111491063 6.174631882343158 -2.380627430488448 7.121503568302965 -8.428310001823164
